<svg width="24" height="24" viewBox="0 0 24 24" fill="none" xmlns="http://www.w3.org/2000/svg">
<path d="M9.25367 18.2888C9.25367 19.5418 9.25367 21.7852 12.0009 21.7852C14.7481 21.7852 14.748 19.4884 14.7481 18.2888M18.2307 8.94398C18.2307 7.29172 17.5744 5.70713 16.406 4.5388C15.2377 3.37047 13.6531 2.71411 12.0009 2.71411C10.3486 2.71411 8.764 3.37047 7.59567 4.5388C6.42735 5.70713 5.77099 7.29172 5.77099 8.94398C5.77099 12.1526 4.96159 14.3494 4.05742 15.8025C3.29475 17.0282 2.91341 17.641 2.92739 17.812C2.94287 18.0013 2.98297 18.0734 3.13552 18.1866C3.27329 18.2888 3.89433 18.2888 5.13643 18.2888H18.8653C20.1074 18.2888 20.7284 18.2888 20.8662 18.1866C21.0187 18.0734 21.0588 18.0013 21.0743 17.812C21.0883 17.641 20.707 17.0282 19.9443 15.8025C19.0401 14.3494 18.2307 12.1526 18.2307 8.94398Z" stroke="black" stroke-width="2" stroke-linecap="round" stroke-linejoin="round"/>
</svg>
